<svg width="120" height="120" viewBox="0 0 120 120" fill="none" xmlns="http://www.w3.org/2000/svg">
<path d="M80.8333 30C80.3731 30 80 30.3731 80 30.8333V39.1667C80 39.6269 80.3731 40 80.8333 40H89.1667C89.6269 40 90 39.6269 90 39.1667V30.8333C90 30.3731 89.6269 30 89.1667 30H80.8333ZM80 90V87.5C80 86.1193 81.1193 85 82.5 85C83.8807 85 85 86.1193 85 87.5V90H90V87.5C90 86.1193 91.1193 85 92.5 85C93.8807 85 95 86.1193 95 87.5V92.5C95 93.8807 93.8807 95 92.5 95H72.5C71.1193 95 70 93.8807 70 92.5V87.5C70 86.1193 71.1193 85 72.5 85C73.8807 85 75 86.1193 75 87.5V90H80ZM65 55H67.5C68.8807 55 70 56.1193 70 57.5C70 58.8807 68.8807 60 67.5 60H57.5C56.1193 60 55 58.8807 55 57.5C55 56.1193 56.1193 55 57.5 55H60V50H52.5C51.1193 50 50 48.8807 50 47.5C50 46.1193 51.1193 45 52.5 45H67.5C68.8807 45 70 46.1193 70 47.5C70 48.8807 68.8807 50 67.5 50H65V55ZM90 60H87.5C86.1193 60 85 58.8807 85 57.5C85 56.1193 86.1193 55 87.5 55H90V52.5C90 51.1193 91.1193 50 92.5 50C93.8807 50 95 51.1193 95 52.5V62.5C95 63.8807 93.8807 65 92.5 65C91.1193 65 90 63.8807 90 62.5V60ZM65 70H62.5C61.1193 70 60 68.8807 60 67.5C60 66.1193 61.1193 65 62.5 65H67.5C68.8807 65 70 66.1193 70 67.5V77.5C70 78.8807 68.8807 80 67.5 80H52.5C51.1193 80 50 78.8807 50 77.5C50 76.1193 51.1193 75 52.5 75H65V70ZM80.8333 25H89.1667C92.3883 25 95 27.6117 95 30.8333V39.1667C95 42.3883 92.3883 45 89.1667 45H80.8333C77.6117 45 75 42.3883 75 39.1667V30.8333C75 27.6117 77.6117 25 80.8333 25ZM30.8333 25H39.1667C42.3883 25 45 27.6117 45 30.8333V39.1667C45 42.3883 42.3883 45 39.1667 45H30.8333C27.6117 45 25 42.3883 25 39.1667V30.8333C25 27.6117 27.6117 25 30.8333 25ZM30.8333 30C30.3731 30 30 30.3731 30 30.8333V39.1667C30 39.6269 30.3731 40 30.8333 40H39.1667C39.6269 40 40 39.6269 40 39.1667V30.8333C40 30.3731 39.6269 30 39.1667 30H30.8333ZM30.8333 75H39.1667C42.3883 75 45 77.6117 45 80.8333V89.1667C45 92.3883 42.3883 95 39.1667 95H30.8333C27.6117 95 25 92.3883 25 89.1667V80.8333C25 77.6117 27.6117 75 30.8333 75ZM30.8333 80C30.3731 80 30 80.3731 30 80.8333V89.1667C30 89.6269 30.3731 90 30.8333 90H39.1667C39.6269 90 40 89.6269 40 89.1667V80.8333C40 80.3731 39.6269 80 39.1667 80H30.8333ZM65 30H52.5C51.1193 30 50 28.8807 50 27.5C50 26.1193 51.1193 25 52.5 25H67.5C68.8807 25 70 26.1193 70 27.5V37.5C70 38.8807 68.8807 40 67.5 40C66.1193 40 65 38.8807 65 37.5V30ZM52.5 40C51.1193 40 50 38.8807 50 37.5C50 36.1193 51.1193 35 52.5 35H57.5C58.8807 35 60 36.1193 60 37.5C60 38.8807 58.8807 40 57.5 40H52.5ZM27.5 70C26.1193 70 25 68.8807 25 67.5C25 66.1193 26.1193 65 27.5 65H37.5C38.8807 65 40 66.1193 40 67.5C40 68.8807 38.8807 70 37.5 70H27.5ZM47.5 70C46.1193 70 45 68.8807 45 67.5C45 66.1193 46.1193 65 47.5 65H52.5C53.8807 65 55 66.1193 55 67.5C55 68.8807 53.8807 70 52.5 70H47.5ZM55 90V92.5C55 93.8807 53.8807 95 52.5 95C51.1193 95 50 93.8807 50 92.5V87.5C50 86.1193 51.1193 85 52.5 85H62.5C63.8807 85 65 86.1193 65 87.5C65 88.8807 63.8807 90 62.5 90H55ZM45 55H47.5C48.8807 55 50 56.1193 50 57.5C50 58.8807 48.8807 60 47.5 60H42.5C41.1193 60 40 58.8807 40 57.5V55H37.5C36.1193 55 35 53.8807 35 52.5C35 51.1193 36.1193 50 37.5 50H42.5C43.8807 50 45 51.1193 45 52.5V55ZM25 52.5C25 51.1193 26.1193 50 27.5 50C28.8807 50 30 51.1193 30 52.5V57.5C30 58.8807 28.8807 60 27.5 60C26.1193 60 25 58.8807 25 57.5V52.5ZM75 52.5C75 51.1193 76.1193 50 77.5 50C78.8807 50 80 51.1193 80 52.5V62.5C80 63.8807 78.8807 65 77.5 65C76.1193 65 75 63.8807 75 62.5V52.5ZM85 75V72.5C85 71.1193 86.1193 70 87.5 70H92.5C93.8807 70 95 71.1193 95 72.5C95 73.8807 93.8807 75 92.5 75H90V77.5C90 78.8807 88.8807 80 87.5 80H77.5C76.1193 80 75 78.8807 75 77.5V72.5C75 71.1193 76.1193 70 77.5 70C78.8807 70 80 71.1193 80 72.5V75H85ZM15 32.5C15 33.8807 13.8807 35 12.5 35C11.1193 35 10 33.8807 10 32.5V22.5C10 15.5964 15.5964 10 22.5 10H32.5C33.8807 10 35 11.1193 35 12.5C35 13.8807 33.8807 15 32.5 15H22.5C18.3579 15 15 18.3579 15 22.5V32.5ZM87.5 15C86.1193 15 85 13.8807 85 12.5C85 11.1193 86.1193 10 87.5 10H97.5C104.404 10 110 15.5964 110 22.5V32.5C110 33.8807 108.881 35 107.5 35C106.119 35 105 33.8807 105 32.5V22.5C105 18.3579 101.642 15 97.5 15H87.5ZM32.5 105C33.8807 105 35 106.119 35 107.5C35 108.881 33.8807 110 32.5 110H22.5C15.5964 110 10 104.404 10 97.5V87.5C10 86.1193 11.1193 85 12.5 85C13.8807 85 15 86.1193 15 87.5V97.5C15 101.642 18.3579 105 22.5 105H32.5ZM105 87.5C105 86.1193 106.119 85 107.5 85C108.881 85 110 86.1193 110 87.5V97.5C110 104.404 104.404 110 97.5 110H87.5C86.1193 110 85 108.881 85 107.5C85 106.119 86.1193 105 87.5 105H97.5C101.642 105 105 101.642 105 97.5V87.5Z" fill="#536A92" fill-opacity="0.7"/>
</svg>
