<svg width="58" height="72" viewBox="0 0 58 72" fill="none" xmlns="http://www.w3.org/2000/svg">
<rect x="0.5" width="57" height="72" rx="6" fill="#F4F4F5"/>
<path d="M25.2095 42.102C25.0337 41.8727 24.8094 41.6853 24.5525 41.553C24.2881 41.4152 23.9731 41.346 23.6075 41.346C23.3341 41.343 23.0634 41.4015 22.8155 41.517C22.5753 41.6312 22.3773 41.814 22.2215 42.0665H22.2035V41.472H20.9885V47.7545H22.2671V45.549H22.2851C22.4409 45.7774 22.6406 45.95 22.8836 46.067C23.1266 46.1835 23.3921 46.2425 23.6801 46.2425C24.0221 46.2425 24.3208 46.1767 24.5756 46.0445C24.8304 45.9123 25.0436 45.7352 25.2146 45.5135C25.389 45.2848 25.5188 45.0253 25.5971 44.7485C25.6816 44.4561 25.7241 44.153 25.7231 43.8485C25.7231 43.5183 25.6809 43.2022 25.5971 42.899C25.52 42.611 25.3884 42.3405 25.2095 42.102ZM24.3905 44.361C24.3545 44.5404 24.2926 44.6985 24.206 44.8335C24.1188 44.9685 24.0052 45.0782 23.864 45.162C23.7228 45.2458 23.5473 45.288 23.3375 45.288C23.1333 45.288 22.9595 45.2463 22.8155 45.162C22.6753 45.0819 22.5565 44.9692 22.469 44.8335C22.378 44.6887 22.314 44.5286 22.28 44.361C22.2408 44.1804 22.2212 43.9962 22.2215 43.8114C22.2215 43.6196 22.2395 43.4334 22.2755 43.254C22.3115 43.074 22.3728 42.9148 22.46 42.7764C22.5467 42.6386 22.6608 42.5261 22.802 42.4389C22.9427 42.3523 23.1181 42.3084 23.3285 42.3084C23.5327 42.3084 23.7048 42.3523 23.846 42.4389C23.9872 42.5255 24.1025 42.6397 24.1925 42.7804C24.2825 42.9215 24.3466 43.0818 24.386 43.2618C24.4248 43.4418 24.4445 43.6247 24.4445 43.8109C24.4445 43.9982 24.4265 44.181 24.3905 44.361ZM27.4505 41.5485C27.1923 41.6829 26.978 41.8624 26.807 42.084C26.6318 42.3143 26.5006 42.575 26.42 42.8529C26.3326 43.1464 26.2887 43.4512 26.2895 43.7574C26.2895 44.0814 26.3328 44.3936 26.42 44.6934C26.5066 44.9932 26.636 45.2593 26.807 45.4899C26.978 45.7211 27.1951 45.9039 27.4595 46.0389C27.7233 46.1739 28.0299 46.2414 28.3775 46.2414C28.6608 46.246 28.9418 46.1892 29.201 46.0749C29.444 45.9641 29.6403 45.7819 29.7905 45.5304H29.8085V46.125H31.0235V39.699H29.7455V42.039H29.7275C29.5854 41.8129 29.3806 41.6331 29.138 41.5215C28.8918 41.4052 28.6228 41.3452 28.3505 41.346C28.0085 41.346 27.7087 41.4135 27.4505 41.5485ZM29.2145 42.435C29.3523 42.5188 29.4648 42.6285 29.552 42.7635C29.6386 42.8979 29.7005 43.0543 29.7365 43.2315C29.7725 43.4081 29.7905 43.5932 29.7905 43.7844C29.7905 43.9768 29.7725 44.1624 29.7365 44.3424C29.7043 44.512 29.6434 44.6748 29.5565 44.8239C29.4721 44.9645 29.3602 45.077 29.219 45.1614C29.0778 45.2452 28.9023 45.2874 28.6925 45.2874C28.4945 45.2874 28.3246 45.2441 28.184 45.1575C28.0431 45.071 27.9232 44.9541 27.833 44.8155C27.7373 44.6684 27.6687 44.5053 27.6305 44.334C27.5888 44.157 27.5677 43.9758 27.5675 43.794C27.5675 43.6016 27.5866 43.4171 27.626 43.2405C27.6648 43.0633 27.7278 42.9058 27.815 42.768C27.9016 42.6302 28.0175 42.5193 28.1615 42.435C28.3055 42.3512 28.4827 42.3084 28.6925 42.3084C28.9023 42.309 29.0761 42.3512 29.2145 42.435ZM32.2655 46.125H33.5435V42.327H34.4255V41.4714H33.5435V41.193C33.5435 41.0006 33.5812 40.8645 33.656 40.7829C33.7308 40.7025 33.8551 40.6614 34.0295 40.6614C34.1915 40.6614 34.3473 40.6704 34.4975 40.6884V39.735C34.3895 39.7293 34.2781 39.722 34.1645 39.7125C34.0507 39.7037 33.9366 39.6994 33.8225 39.6995C33.3005 39.6995 32.9101 39.8312 32.6525 40.0955C32.3949 40.3593 32.2655 40.698 32.2655 41.1125V41.4725H31.5005V42.3281H32.2655V46.125Z" fill="#6F86AD"/>
<path d="M29.75 19.125H16.25V52.875H38.75V28.125L29.75 19.125ZM37.625 51.75H17.375V20.25H28.625V29.25H37.625V51.75Z" fill="#6F86AD"/>
<path d="M0.5 17.5L18 0.5H23H28L0.5 27.5V17.5Z" fill="#F17B4F" stroke="#F17B4F"/>
<path d="M6.84926 13.3688L9.83513 16.4315L9.27923 16.9735L6.9253 14.5589L6.42622 15.5201L5.98857 15.0712L6.78633 13.4301L6.84926 13.3688ZM11.0231 13.1007L10.2365 13.8676L9.79474 13.4145L10.5814 12.6476C10.7101 12.5221 10.7938 12.3996 10.8326 12.2799C10.8715 12.1575 10.8736 12.0408 10.8391 11.9299C10.8033 11.8175 10.7383 11.7131 10.6442 11.6166C10.5529 11.5229 10.4488 11.4539 10.3319 11.4096C10.2151 11.3653 10.0916 11.3575 9.96139 11.3863C9.83259 11.4136 9.70386 11.49 9.5752 11.6155L8.97734 12.1983L11.5112 14.7975L10.9344 15.3599L7.95667 12.3055L9.13141 11.1603C9.36915 10.9285 9.61352 10.7734 9.86451 10.6951C10.1155 10.6141 10.358 10.6054 10.592 10.6692C10.8261 10.7302 11.0358 10.8557 11.2212 11.0459C11.4134 11.2431 11.5343 11.4567 11.5839 11.6866C11.6349 11.9151 11.6132 12.1503 11.519 12.3922C11.4262 12.6328 11.2609 12.8689 11.0231 13.1007ZM14.6033 11.783L13.9446 12.4251L13.5071 11.9679L14.1616 11.3298C14.3392 11.1567 14.45 10.9723 14.4939 10.7768C14.5364 10.5798 14.5162 10.3772 14.4332 10.169C14.3489 9.95933 14.2051 9.75032 14.002 9.54195L13.8486 9.38461C13.6918 9.22379 13.5359 9.09888 13.381 9.0099C13.2261 8.92092 13.0734 8.86787 12.9231 8.85077C12.7742 8.8323 12.6289 8.84979 12.4873 8.90324C12.3458 8.95669 12.2107 9.04613 12.082 9.17157L11.3981 9.83828L10.9544 9.38306L11.6382 8.71635C11.8424 8.5173 12.0618 8.37023 12.2964 8.27514C12.5325 8.1787 12.7747 8.13482 13.0232 8.1435C13.2718 8.14942 13.5155 8.20914 13.7544 8.32267C13.9946 8.43484 14.2218 8.6007 14.4359 8.82027L14.5852 8.9734C14.7978 9.19157 14.9579 9.42288 15.0653 9.66733C15.1727 9.90902 15.2262 10.1542 15.2258 10.4028C15.2268 10.65 15.1754 10.8911 15.0716 11.1259C14.9678 11.3608 14.8117 11.5798 14.6033 11.783ZM11.29 9.05584L14.2677 12.1102L13.6908 12.6726L10.7131 9.61825L11.29 9.05584ZM14.0884 6.32766L17.0661 9.38199L16.4892 9.94439L13.5115 6.89007L14.0884 6.32766ZM16.6062 6.44666L17.0499 6.90187L15.6675 8.24961L15.2237 7.79439L16.6062 6.44666ZM15.4813 4.9697L15.9251 5.42491L14.3812 6.93012L13.9374 6.47491L15.4813 4.9697Z" fill="white"/>
</svg>
