<svg width="57" height="72" viewBox="0 0 57 72" fill="none" xmlns="http://www.w3.org/2000/svg">
<rect width="57" height="72" rx="6" fill="#F2F2F2"/>
<path d="M24.7095 42.102C24.5337 41.8728 24.3093 41.6853 24.0525 41.553C23.7881 41.4152 23.4731 41.346 23.1075 41.346C22.834 41.343 22.5634 41.4015 22.3155 41.517C22.0753 41.6312 21.8773 41.814 21.7215 42.0666H21.7035V41.472H20.4885V47.7546H21.7671V45.549H21.7851C21.9409 45.7774 22.1406 45.9501 22.3836 46.0671C22.6266 46.1835 22.8921 46.2426 23.1801 46.2426C23.5221 46.2426 23.8207 46.1768 24.0756 46.0446C24.3304 45.9124 24.5436 45.7352 24.7146 45.5136C24.889 45.2849 25.0187 45.0253 25.0971 44.7486C25.1816 44.4561 25.224 44.153 25.2231 43.8486C25.2231 43.5184 25.1809 43.2023 25.0971 42.8991C25.02 42.6111 24.8884 42.3405 24.7095 42.102ZM23.8905 44.361C23.8545 44.5404 23.7926 44.6985 23.706 44.8335C23.6188 44.9685 23.5052 45.0782 23.364 45.162C23.2228 45.2458 23.0473 45.288 22.8375 45.288C22.6333 45.288 22.4595 45.2464 22.3155 45.162C22.1753 45.0819 22.0565 44.9692 21.969 44.8335C21.878 44.6887 21.8139 44.5286 21.78 44.361C21.7408 44.1805 21.7211 43.9962 21.7215 43.8114C21.7215 43.6196 21.7395 43.4334 21.7755 43.254C21.8115 43.074 21.8728 42.9148 21.96 42.7764C22.0466 42.6386 22.1608 42.5261 22.302 42.4389C22.4426 42.3523 22.6181 42.3084 22.8285 42.3084C23.0327 42.3084 23.2048 42.3523 23.346 42.4389C23.4872 42.5256 23.6025 42.6398 23.6925 42.7804C23.7825 42.9216 23.8466 43.0819 23.886 43.2619C23.9248 43.4419 23.9445 43.6247 23.9445 43.8109C23.9445 43.9982 23.9265 44.181 23.8905 44.361ZM26.9505 41.5485C26.6923 41.6829 26.478 41.8624 26.307 42.084C26.1318 42.3143 26.0005 42.575 25.92 42.8529C25.8326 43.1465 25.7886 43.4512 25.7895 43.7574C25.7895 44.0814 25.8328 44.3936 25.92 44.6934C26.0066 44.9933 26.136 45.2593 26.307 45.4899C26.478 45.7211 26.6951 45.9039 26.9595 46.0389C27.2233 46.1739 27.5299 46.2414 27.8775 46.2414C28.1608 46.246 28.4417 46.1892 28.701 46.0749C28.944 45.9641 29.1403 45.7819 29.2905 45.5304H29.3085V46.125H30.5235V39.699H29.2455V42.039H29.2275C29.0854 41.8129 28.8806 41.6331 28.638 41.5215C28.3918 41.4052 28.1228 41.3452 27.8505 41.346C27.5085 41.346 27.2087 41.4135 26.9505 41.5485ZM28.7145 42.435C28.8523 42.5188 28.9648 42.6285 29.052 42.7635C29.1386 42.8979 29.2005 43.0543 29.2365 43.2315C29.2725 43.4081 29.2905 43.5932 29.2905 43.7844C29.2905 43.9768 29.2725 44.1624 29.2365 44.3424C29.2043 44.512 29.1434 44.6748 29.0565 44.8239C28.9721 44.9646 28.8602 45.0771 28.719 45.1614C28.5778 45.2453 28.4023 45.2874 28.1925 45.2874C27.9945 45.2874 27.8246 45.2441 27.684 45.1575C27.543 45.071 27.4231 44.9542 27.333 44.8155C27.2372 44.6684 27.1687 44.5053 27.1305 44.334C27.0888 44.157 27.0676 43.9758 27.0675 43.794C27.0675 43.6016 27.0866 43.4171 27.126 43.2405C27.1648 43.0633 27.2278 42.9058 27.315 42.768C27.4016 42.6302 27.5175 42.5194 27.6615 42.435C27.8055 42.3512 27.9827 42.3084 28.1925 42.3084C28.4023 42.309 28.5761 42.3512 28.7145 42.435ZM31.7655 46.125H33.0435V42.327H33.9255V41.4714H33.0435V41.193C33.0435 41.0006 33.0812 40.8645 33.156 40.7829C33.2308 40.7025 33.3551 40.6614 33.5295 40.6614C33.6915 40.6614 33.8473 40.6704 33.9975 40.6884V39.735C33.8895 39.7294 33.7781 39.7221 33.6645 39.7125C33.5507 39.7037 33.4366 39.6994 33.3225 39.6996C32.8005 39.6996 32.4101 39.8312 32.1525 40.0956C31.8949 40.3594 31.7655 40.698 31.7655 41.1126V41.4726H31.0005V42.3281H31.7655V46.125Z" fill="#4F5E7B" fill-opacity="0.43"/>
<path d="M29.25 19.125H15.75V52.875H38.25V28.125L29.25 19.125ZM37.125 51.75H16.875V20.25H28.125V29.25H37.125V51.75Z" fill="#4F5E7B" fill-opacity="0.43"/>
</svg>
