<svg width="30" height="29" viewBox="0 0 30 29" fill="none" xmlns="http://www.w3.org/2000/svg">
<path d="M0.5 17.5L18 0.5H23H28L0.5 27.5V17.5Z" fill="#F17B4F" stroke="#F17B4F"/>
<path d="M6.96798 13.2234L9.95385 16.2862L9.39794 16.8281L7.04401 14.4136L6.54494 15.3748L6.10728 14.9259L6.90504 13.2848L6.96798 13.2234ZM11.1419 12.9553L10.3552 13.7223L9.91345 13.2691L10.7001 12.5022C10.8288 12.3768 10.9125 12.2542 10.9513 12.1346C10.9902 12.0121 10.9923 11.8955 10.9578 11.7845C10.922 11.6722 10.857 11.5678 10.7629 11.4713C10.6716 11.3776 10.5675 11.3086 10.4507 11.2643C10.3338 11.22 10.2103 11.2122 10.0801 11.2409C9.9513 11.2683 9.82257 11.3447 9.69391 11.4701L9.09605 12.053L11.63 14.6521L11.0531 15.2145L8.07538 12.1602L9.25012 11.0149C9.48787 10.7831 9.73223 10.6281 9.98322 10.5498C10.2342 10.4687 10.4768 10.4601 10.7107 10.5238C10.9448 10.5848 11.1545 10.7104 11.3399 10.9006C11.5322 11.0978 11.6531 11.3113 11.7026 11.5412C11.7536 11.7698 11.732 12.005 11.6377 12.2469C11.5449 12.4874 11.3796 12.7236 11.1419 12.9553ZM14.722 11.6376L14.0633 12.2798L13.6258 11.8226L14.2803 11.1845C14.4579 11.0113 14.5687 10.827 14.6126 10.6314C14.6551 10.4344 14.6349 10.2318 14.5519 10.0236C14.4676 9.81398 14.3238 9.60498 14.1207 9.3966L13.9673 9.23927C13.8105 9.07844 13.6546 8.95354 13.4997 8.86455C13.3448 8.77557 13.1921 8.72253 13.0418 8.70543C12.8929 8.68696 12.7476 8.70445 12.6061 8.7579C12.4645 8.81135 12.3294 8.90079 12.2007 9.02622L11.5169 9.69293L11.0731 9.23772L11.7569 8.57101C11.9611 8.37195 12.1805 8.22488 12.4151 8.1298C12.6512 8.03335 12.8934 7.98947 13.1419 7.99815C13.3905 8.00407 13.6342 8.0638 13.8731 8.17733C14.1134 8.28949 14.3405 8.45536 14.5546 8.67492L14.7039 8.82806C14.9166 9.04623 15.0766 9.27753 15.184 9.52199C15.2914 9.76368 15.3449 10.0088 15.3445 10.2574C15.3455 10.5047 15.2941 10.7457 15.1903 10.9806C15.0865 11.2155 14.9304 11.4345 14.722 11.6376ZM11.4087 8.9105L14.3864 11.9648L13.8095 12.5272L10.8318 9.47291L11.4087 8.9105ZM14.2071 6.18231L17.1848 9.23664L16.6079 9.79905L13.6302 6.74472L14.2071 6.18231ZM16.7249 6.30132L17.1687 6.75653L15.7862 8.10426L15.3425 7.64905L16.7249 6.30132ZM15.6 4.82436L16.0438 5.27957L14.4999 6.78477L14.0561 6.32956L15.6 4.82436Z" fill="white"/>
</svg>
