<svg width="17" height="17" viewBox="0 0 17 17" fill="none" xmlns="http://www.w3.org/2000/svg">
<g clip-path="url(#clip0_748_6872)">
<path d="M7.07107 6.36391L6.36396 7.07102L7.77818 8.48523L6.36396 9.89944L7.07107 10.6065L8.48528 9.19234L9.8995 10.6065L10.6066 9.89944L9.19239 8.48523L10.6066 7.07102L9.8995 6.36391L8.48528 7.77812L7.07107 6.36391ZM4.94975 4.9497C2.99637 6.90308 2.99637 10.0674 4.94975 12.0208C6.90313 13.9741 10.0674 13.9741 12.0208 12.0208C13.9742 10.0674 13.9742 6.90308 12.0208 4.9497C10.0674 2.99631 6.90313 2.99631 4.94975 4.9497ZM11.3137 11.3137C9.75454 12.8728 7.21603 12.8728 5.65686 11.3137C4.09769 9.75449 4.09769 7.21597 5.65686 5.6568C7.21603 4.09763 9.75454 4.09763 11.3137 5.6568C12.8729 7.21597 12.8729 9.75449 11.3137 11.3137Z" fill="#71717A"/>
</g>
<defs>
<clipPath id="clip0_748_6872">
<rect width="12" height="12" fill="white" transform="translate(0 8.48523) rotate(-45)"/>
</clipPath>
</defs>
</svg>
