<svg width="15" height="15" viewBox="0 0 15 15" fill="none" xmlns="http://www.w3.org/2000/svg">
<path d="M2.8125 7.1875H12.1875" stroke="#A1A1AA" stroke-miterlimit="1.41421"/>
<path d="M2.8125 5.2125C2.8125 4.37242 2.8125 3.95238 2.97599 3.63151C3.1198 3.34927 3.34927 3.1198 3.63151 2.97599C3.95238 2.8125 4.37242 2.8125 5.2125 2.8125H5.53487C5.91058 2.8125 6.09844 2.8125 6.26896 2.86429C6.41991 2.91013 6.56035 2.9853 6.68222 3.08548C6.81989 3.19864 6.92409 3.35495 7.13247 3.66757L7.24253 3.83268C7.45091 4.1453 7.55511 4.30161 7.69278 4.41477C7.81465 4.51495 7.95509 4.59012 8.10604 4.63596C8.27656 4.68775 8.46442 4.68775 8.84013 4.68775H9.7875C10.6276 4.68775 11.0476 4.68775 11.3685 4.85124C11.6507 4.99505 11.8802 5.22452 12.024 5.50677C12.1875 5.82763 12.1875 6.24767 12.1875 7.08775V9.16275C12.1875 10.0028 12.1875 10.4229 12.024 10.7437C11.8802 11.026 11.6507 11.2555 11.3685 11.3993C11.0476 11.5628 10.6276 11.5628 9.7875 11.5628H5.2125C4.37242 11.5628 3.95238 11.5628 3.63151 11.3993C3.34927 11.2555 3.1198 11.026 2.97599 10.7437C2.8125 10.4229 2.8125 10.0028 2.8125 9.16275V5.2125Z" stroke="#A1A1AA"/>
</svg>
