<svg width="21" height="21" viewBox="0 0 21 21" fill="none" xmlns="http://www.w3.org/2000/svg">
<path d="M10.5 0C4.69875 0 0 4.69875 0 10.5C0 16.3012 4.69875 21 10.5 21C16.3012 21 21 16.3012 21 10.5C21 4.69875 16.3012 0 10.5 0ZM9.45 18.8265C5.30775 18.312 2.1 14.784 2.1 10.5C2.1 9.85425 2.17875 9.22425 2.3205 8.6205L7.35 13.65V14.7C7.35 15.8602 8.28975 16.8 9.45 16.8V18.8265ZM16.6898 16.1647C16.422 15.3142 15.6345 14.7 14.7 14.7H13.65V11.55C13.65 10.9725 13.1775 10.5 12.6 10.5H6.3V8.4H8.4C8.9775 8.4 9.45 7.9275 9.45 7.35V5.25H11.55C12.7102 5.25 13.65 4.31025 13.65 3.15V2.71425C16.7265 3.9585 18.9 6.972 18.9 10.5C18.9 12.684 18.06 14.6685 16.6898 16.1647Z" fill="#536A92"/>
</svg>
