<svg width="4" height="14" viewBox="0 0 4 14" fill="none" xmlns="http://www.w3.org/2000/svg">
<path d="M1.75 3.5C2.71688 3.5 3.5 2.71688 3.5 1.75C3.5 0.783125 2.71688 0 1.75 0C0.783125 0 0 0.783125 0 1.75C0 2.71688 0.783125 3.5 1.75 3.5ZM1.75 5.25C0.783125 5.25 0 6.03312 0 7C0 7.96688 0.783125 8.75 1.75 8.75C2.71688 8.75 3.5 7.96688 3.5 7C3.5 6.03312 2.71688 5.25 1.75 5.25ZM1.75 10.5C0.783125 10.5 0 11.2831 0 12.25C0 13.2169 0.783125 14 1.75 14C2.71688 14 3.5 13.2169 3.5 12.25C3.5 11.2831 2.71688 10.5 1.75 10.5Z" fill="#536A92"/>
</svg>
