<svg width="94" height="94" viewBox="0 0 94 94" fill="none" xmlns="http://www.w3.org/2000/svg">
<path fill-rule="evenodd" clip-rule="evenodd" d="M15.6665 32.9902C15.6665 32.1727 15.6665 31.7639 15.8187 31.3964C15.971 31.0288 16.26 30.7398 16.8381 30.1617L26.2449 20.7549C26.823 20.1768 27.112 19.8878 27.4796 19.7356C27.8471 19.5833 28.2559 19.5833 29.0734 19.5833H64.9263C65.7438 19.5833 66.1526 19.5833 66.5201 19.7356C66.8876 19.8878 67.1767 20.1768 67.7547 20.7549L77.1616 30.1617C77.7397 30.7398 78.0287 31.0288 78.1809 31.3964C78.3332 31.7639 78.3332 32.1727 78.3332 32.9902V42.0833H15.6665V32.9902ZM60.0319 44.0833H78.3332V74.3333C78.3332 76.2189 78.3332 77.1617 77.7474 77.7475C77.1616 78.3333 76.2188 78.3333 74.3332 78.3333H19.6665C17.7809 78.3333 16.8381 78.3333 16.2523 77.7475C15.6665 77.1617 15.6665 76.2189 15.6665 74.3333V44.0833H33.9665C33.9436 44.3325 33.9436 44.6443 33.9436 45.0416V61.3611C33.9436 64.3566 33.9436 65.8543 34.331 66.6594C35.1958 68.4564 37.2728 69.3167 39.155 68.6575C39.9981 68.3622 41.0572 67.3031 43.1753 65.185C44.1563 64.2039 44.6469 63.7134 45.1684 63.4377C46.3138 62.832 47.6846 62.832 48.83 63.4377C49.3515 63.7134 49.842 64.2039 50.8231 65.185C52.9412 67.3031 54.0003 68.3622 54.8434 68.6575C56.7256 69.3167 58.8026 68.4564 59.6674 66.6594C60.0548 65.8543 60.0548 64.3566 60.0548 61.3611V45.0417V45.0416C60.0548 44.6443 60.0548 44.3325 60.0319 44.0833Z" fill="#6F86AD"/>
</svg>
