<svg width="24" height="24" viewBox="0 0 24 24" fill="none" xmlns="http://www.w3.org/2000/svg">
<path d="M16.1667 6C16.0746 6 16 6.07462 16 6.16667V7.83333C16 7.92538 16.0746 8 16.1667 8H17.8333C17.9254 8 18 7.92538 18 7.83333V6.16667C18 6.07462 17.9254 6 17.8333 6H16.1667ZM16 18V17.5C16 17.2239 16.2239 17 16.5 17C16.7761 17 17 17.2239 17 17.5V18H18V17.5C18 17.2239 18.2239 17 18.5 17C18.7761 17 19 17.2239 19 17.5V18.5C19 18.7761 18.7761 19 18.5 19H14.5C14.2239 19 14 18.7761 14 18.5V17.5C14 17.2239 14.2239 17 14.5 17C14.7761 17 15 17.2239 15 17.5V18H16ZM13 11H13.5C13.7761 11 14 11.2239 14 11.5C14 11.7761 13.7761 12 13.5 12H11.5C11.2239 12 11 11.7761 11 11.5C11 11.2239 11.2239 11 11.5 11H12V10H10.5C10.2239 10 10 9.77614 10 9.5C10 9.22386 10.2239 9 10.5 9H13.5C13.7761 9 14 9.22386 14 9.5C14 9.77614 13.7761 10 13.5 10H13V11ZM18 12H17.5C17.2239 12 17 11.7761 17 11.5C17 11.2239 17.2239 11 17.5 11H18V10.5C18 10.2239 18.2239 10 18.5 10C18.7761 10 19 10.2239 19 10.5V12.5C19 12.7761 18.7761 13 18.5 13C18.2239 13 18 12.7761 18 12.5V12ZM13 14H12.5C12.2239 14 12 13.7761 12 13.5C12 13.2239 12.2239 13 12.5 13H13.5C13.7761 13 14 13.2239 14 13.5V15.5C14 15.7761 13.7761 16 13.5 16H10.5C10.2239 16 10 15.7761 10 15.5C10 15.2239 10.2239 15 10.5 15H13V14ZM16.1667 5H17.8333C18.4777 5 19 5.52233 19 6.16667V7.83333C19 8.47767 18.4777 9 17.8333 9H16.1667C15.5223 9 15 8.47767 15 7.83333V6.16667C15 5.52233 15.5223 5 16.1667 5ZM6.16667 5H7.83333C8.47767 5 9 5.52233 9 6.16667V7.83333C9 8.47767 8.47767 9 7.83333 9H6.16667C5.52233 9 5 8.47767 5 7.83333V6.16667C5 5.52233 5.52233 5 6.16667 5ZM6.16667 6C6.07462 6 6 6.07462 6 6.16667V7.83333C6 7.92538 6.07462 8 6.16667 8H7.83333C7.92538 8 8 7.92538 8 7.83333V6.16667C8 6.07462 7.92538 6 7.83333 6H6.16667ZM6.16667 15H7.83333C8.47767 15 9 15.5223 9 16.1667V17.8333C9 18.4777 8.47767 19 7.83333 19H6.16667C5.52233 19 5 18.4777 5 17.8333V16.1667C5 15.5223 5.52233 15 6.16667 15ZM6.16667 16C6.07462 16 6 16.0746 6 16.1667V17.8333C6 17.9254 6.07462 18 6.16667 18H7.83333C7.92538 18 8 17.9254 8 17.8333V16.1667C8 16.0746 7.92538 16 7.83333 16H6.16667ZM13 6H10.5C10.2239 6 10 5.77614 10 5.5C10 5.22386 10.2239 5 10.5 5H13.5C13.7761 5 14 5.22386 14 5.5V7.5C14 7.77614 13.7761 8 13.5 8C13.2239 8 13 7.77614 13 7.5V6ZM10.5 8C10.2239 8 10 7.77614 10 7.5C10 7.22386 10.2239 7 10.5 7H11.5C11.7761 7 12 7.22386 12 7.5C12 7.77614 11.7761 8 11.5 8H10.5ZM5.5 14C5.22386 14 5 13.7761 5 13.5C5 13.2239 5.22386 13 5.5 13H7.5C7.77614 13 8 13.2239 8 13.5C8 13.7761 7.77614 14 7.5 14H5.5ZM9.5 14C9.22386 14 9 13.7761 9 13.5C9 13.2239 9.22386 13 9.5 13H10.5C10.7761 13 11 13.2239 11 13.5C11 13.7761 10.7761 14 10.5 14H9.5ZM11 18V18.5C11 18.7761 10.7761 19 10.5 19C10.2239 19 10 18.7761 10 18.5V17.5C10 17.2239 10.2239 17 10.5 17H12.5C12.7761 17 13 17.2239 13 17.5C13 17.7761 12.7761 18 12.5 18H11ZM9 11H9.5C9.77614 11 10 11.2239 10 11.5C10 11.7761 9.77614 12 9.5 12H8.5C8.22386 12 8 11.7761 8 11.5V11H7.5C7.22386 11 7 10.7761 7 10.5C7 10.2239 7.22386 10 7.5 10H8.5C8.77614 10 9 10.2239 9 10.5V11ZM5 10.5C5 10.2239 5.22386 10 5.5 10C5.77614 10 6 10.2239 6 10.5V11.5C6 11.7761 5.77614 12 5.5 12C5.22386 12 5 11.7761 5 11.5V10.5ZM15 10.5C15 10.2239 15.2239 10 15.5 10C15.7761 10 16 10.2239 16 10.5V12.5C16 12.7761 15.7761 13 15.5 13C15.2239 13 15 12.7761 15 12.5V10.5ZM17 15V14.5C17 14.2239 17.2239 14 17.5 14H18.5C18.7761 14 19 14.2239 19 14.5C19 14.7761 18.7761 15 18.5 15H18V15.5C18 15.7761 17.7761 16 17.5 16H15.5C15.2239 16 15 15.7761 15 15.5V14.5C15 14.2239 15.2239 14 15.5 14C15.7761 14 16 14.2239 16 14.5V15H17ZM3 6.5C3 6.77614 2.77614 7 2.5 7C2.22386 7 2 6.77614 2 6.5V4.5C2 3.11929 3.11929 2 4.5 2H6.5C6.77614 2 7 2.22386 7 2.5C7 2.77614 6.77614 3 6.5 3H4.5C3.67157 3 3 3.67157 3 4.5V6.5ZM17.5 3C17.2239 3 17 2.77614 17 2.5C17 2.22386 17.2239 2 17.5 2H19.5C20.8807 2 22 3.11929 22 4.5V6.5C22 6.77614 21.7761 7 21.5 7C21.2239 7 21 6.77614 21 6.5V4.5C21 3.67157 20.3284 3 19.5 3H17.5ZM6.5 21C6.77614 21 7 21.2239 7 21.5C7 21.7761 6.77614 22 6.5 22H4.5C3.11929 22 2 20.8807 2 19.5V17.5C2 17.2239 2.22386 17 2.5 17C2.77614 17 3 17.2239 3 17.5V19.5C3 20.3284 3.67157 21 4.5 21H6.5ZM21 17.5C21 17.2239 21.2239 17 21.5 17C21.7761 17 22 17.2239 22 17.5V19.5C22 20.8807 20.8807 22 19.5 22H17.5C17.2239 22 17 21.7761 17 21.5C17 21.2239 17.2239 21 17.5 21H19.5C20.3284 21 21 20.3284 21 19.5V17.5Z" fill="#536A92"/>
</svg>
