<svg width="260" height="39" viewBox="0 0 260 39" fill="none" xmlns="http://www.w3.org/2000/svg">
<path d="M18.9665 32.1638C19.6021 31.7801 20.3979 31.7801 21.0335 32.1638L28.302 36.5508C29.8166 37.4649 31.6851 36.107 31.2832 34.3841L29.3543 26.1156C29.1856 25.3926 29.4313 24.6357 29.9924 24.1496L36.4172 18.5838C37.7544 17.4254 37.0396 15.2288 35.2767 15.0793L26.8217 14.362C26.0826 14.2992 25.4383 13.8313 25.1488 13.1483C23.8858 10.1684 22.9309 7.91529 21.8415 5.34484C21.1523 3.71879 18.8477 3.71868 18.1586 5.34474L14.8506 13.1496C14.5612 13.8326 13.9174 14.2992 13.1783 14.362L4.72326 15.0793C2.9604 15.2288 2.24559 17.4254 3.58279 18.5838L10.0076 24.1496C10.5687 24.6357 10.8144 25.3926 10.6457 26.1156L8.71683 34.3841C8.3149 36.107 10.1834 37.4649 11.698 36.5508L18.9665 32.1638Z" fill="#EE5A24"/>
<path d="M73.9665 32.1638C74.6021 31.7801 75.3979 31.7801 76.0335 32.1638L83.302 36.5508C84.8166 37.4649 86.6851 36.107 86.2832 34.3841L84.3543 26.1156C84.1856 25.3926 84.4313 24.6357 84.9924 24.1496L91.4172 18.5838C92.7544 17.4254 92.0396 15.2288 90.2767 15.0793L81.8217 14.362C81.0826 14.2992 80.4383 13.8313 80.1488 13.1483C78.8858 10.1684 77.9309 7.91529 76.8415 5.34484C76.1523 3.71879 73.8477 3.71868 73.1586 5.34474L69.8506 13.1496C69.5612 13.8326 68.9174 14.2992 68.1783 14.362L59.7233 15.0793C57.9604 15.2288 57.2456 17.4254 58.5828 18.5838L65.0076 24.1496C65.5687 24.6357 65.8144 25.3926 65.6457 26.1156L63.7168 34.3841C63.3149 36.107 65.1834 37.4649 66.698 36.5508L73.9665 32.1638Z" fill="#EE5A24"/>
<path d="M128.967 32.1638C129.602 31.7801 130.398 31.7801 131.033 32.1638L138.302 36.5508C139.817 37.4649 141.685 36.107 141.283 34.3841L139.354 26.1156C139.186 25.3926 139.431 24.6357 139.992 24.1496L146.417 18.5838C147.754 17.4254 147.04 15.2288 145.277 15.0793L136.822 14.362C136.083 14.2992 135.438 13.8313 135.149 13.1483C133.886 10.1684 132.931 7.91529 131.841 5.34484C131.152 3.71879 128.848 3.71868 128.159 5.34474L124.851 13.1496C124.561 13.8326 123.917 14.2992 123.178 14.362L114.723 15.0793C112.96 15.2288 112.246 17.4254 113.583 18.5838L120.008 24.1496C120.569 24.6357 120.814 25.3926 120.646 26.1156L118.717 34.3841C118.315 36.107 120.183 37.4649 121.698 36.5508L128.967 32.1638Z" fill="#EE5A24"/>
<path d="M183.967 32.1638C184.602 31.7801 185.398 31.7801 186.033 32.1638L193.302 36.5508C194.817 37.4649 196.685 36.107 196.283 34.3841L194.354 26.1156C194.186 25.3926 194.431 24.6357 194.992 24.1496L201.417 18.5838C202.754 17.4254 202.04 15.2288 200.277 15.0793L191.822 14.362C191.083 14.2992 190.438 13.8313 190.149 13.1483C188.886 10.1684 187.931 7.91529 186.841 5.34484C186.152 3.71879 183.848 3.71868 183.159 5.34474L179.851 13.1496C179.561 13.8326 178.917 14.2992 178.178 14.362L169.723 15.0793C167.96 15.2288 167.246 17.4254 168.583 18.5838L175.008 24.1496C175.569 24.6357 175.814 25.3926 175.646 26.1156L173.717 34.3841C173.315 36.107 175.183 37.4649 176.698 36.5508L183.967 32.1638Z" fill="#EE5A24"/>
<path d="M256.431 17.5771C257.766 16.4189 257.053 14.2259 255.292 14.0741L245.62 13.24L241.842 4.34046C241.153 2.71526 238.849 2.71588 238.16 4.34146L234.38 13.26L224.723 14.0793C222.96 14.2288 222.246 16.4254 223.583 17.5838L230.92 23.94L228.717 33.3841C228.315 35.107 230.183 36.4649 231.698 35.5508L240 30.54L248.31 35.5554C249.823 36.4689 251.691 35.1135 251.291 33.3913L249.1 23.94L256.431 17.5771ZM240 26.8L232.48 31.34L233.48 27.06L234.48 22.78L227.84 17.02L236.6 16.26L240 8.2L243.42 16.28L252.18 17.04L245.54 22.8L247.54 31.36L240 26.8Z" fill="#EE5A24"/>
</svg>
