<svg width="24" height="24" viewBox="0 0 24 24" fill="none" xmlns="http://www.w3.org/2000/svg">
<circle cx="12" cy="12" r="8" fill="#536A92"/>
<path d="M8.5 11L11.3939 13.8939C11.4525 13.9525 11.5475 13.9525 11.6061 13.8939L19.5 6" stroke="white" stroke-width="1.2"/>
<path d="M15.75 5.50481C16.603 5.99727 17.3506 6.6529 17.9501 7.43429C18.5497 8.21567 18.9895 9.1075 19.2444 10.0589C19.4994 11.0102 19.5644 12.0025 19.4358 12.9789C19.3073 13.9554 18.9876 14.897 18.4952 15.75C18.0027 16.603 17.3471 17.3506 16.5657 17.9501C15.7843 18.5497 14.8925 18.9895 13.9411 19.2444C12.9898 19.4994 11.9975 19.5644 11.0211 19.4358C10.0446 19.3073 9.10296 18.9876 8.25 18.4952C7.39704 18.0027 6.64943 17.3471 6.04985 16.5657C5.45027 15.7843 5.01047 14.8925 4.75556 13.9411C4.50064 12.9898 4.43561 11.9975 4.56416 11.0211C4.69272 10.0446 5.01235 9.10296 5.50481 8.25C5.99727 7.39704 6.6529 6.64943 7.43429 6.04985C8.21567 5.45027 9.1075 5.01047 10.0589 4.75556C11.0102 4.50064 12.0025 4.43561 12.9789 4.56416C13.9554 4.69272 14.897 5.01235 15.75 5.50481L15.75 5.50481Z" stroke="white" stroke-linecap="round"/>
</svg>
