<svg width="19" height="20" viewBox="0 0 19 20" fill="none" xmlns="http://www.w3.org/2000/svg">
<path d="M15.0602 14.1466C14.2972 14.1466 13.6094 14.4428 13.0873 14.9197L5.93373 10.748C5.98896 10.5221 6.0241 10.2861 6.0241 10.0452C6.0241 9.80422 5.98896 9.56827 5.93373 9.34237L13.012 5.21084C13.5492 5.71285 14.2671 6.0241 15.0602 6.0241C16.7219 6.0241 18.0723 4.67369 18.0723 3.01205C18.0723 1.3504 16.7219 0 15.0602 0C13.3986 0 12.0482 1.3504 12.0482 3.01205C12.0482 3.25301 12.0833 3.48896 12.1386 3.71486L5.06024 7.84639C4.52309 7.34438 3.80522 7.03313 3.01205 7.03313C1.3504 7.03313 0 8.38353 0 10.0452C0 11.7068 1.3504 13.0572 3.01205 13.0572C3.80522 13.0572 4.52309 12.746 5.06024 12.244L12.2139 16.4157C12.1637 16.6265 12.1335 16.8474 12.1335 17.0733C12.1335 18.6898 13.4438 20 15.0602 20C16.6767 20 17.9869 18.6898 17.9869 17.0733C17.9869 15.4568 16.6767 14.1466 15.0602 14.1466Z" fill="#4F5E7B"/>
</svg>
