<svg width="34" height="34" viewBox="0 0 34 34" fill="none" xmlns="http://www.w3.org/2000/svg">
<path d="M14.602 10.2282C15.5116 7.96056 15.9664 6.82674 16.7053 6.6696C16.8996 6.62828 17.1004 6.62828 17.2947 6.6696C18.0336 6.82674 18.4884 7.96056 19.398 10.2282C19.9153 11.5178 20.1739 12.1625 20.6579 12.6011C20.7936 12.7241 20.941 12.8337 21.0979 12.9282C21.6572 13.2654 22.3555 13.3279 23.752 13.453C26.1161 13.6647 27.2981 13.7705 27.6591 14.4445C27.7338 14.5841 27.7847 14.7352 27.8095 14.8916C27.9291 15.6467 27.0602 16.4373 25.3222 18.0185L24.8396 18.4576C24.0271 19.1968 23.6208 19.5664 23.3858 20.0277C23.2449 20.3044 23.1503 20.6024 23.1061 20.9097C23.0322 21.4221 23.1512 21.9583 23.3891 23.0307L23.4741 23.4139C23.9008 25.3371 24.1142 26.2986 23.8479 26.7713C23.6086 27.1959 23.168 27.4677 22.6812 27.4909C22.1393 27.5168 21.3757 26.8946 19.8486 25.6502C18.8425 24.8303 18.3394 24.4204 17.781 24.2603C17.2706 24.114 16.7294 24.114 16.219 24.2603C15.6606 24.4204 15.1575 24.8303 14.1514 25.6502C12.6243 26.8946 11.8607 27.5168 11.3188 27.4909C10.832 27.4677 10.3914 27.1959 10.1521 26.7713C9.88582 26.2986 10.0992 25.3371 10.5259 23.4139L10.6109 23.0307C10.8488 21.9583 10.9678 21.4221 10.8939 20.9097C10.8497 20.6024 10.7551 20.3044 10.6142 20.0277C10.3792 19.5664 9.97294 19.1968 9.16042 18.4576L8.6778 18.0185C6.93985 16.4373 6.07087 15.6467 6.19054 14.8916C6.21533 14.7352 6.26616 14.5841 6.34092 14.4445C6.70188 13.7705 7.88392 13.6647 10.248 13.453C11.6445 13.3279 12.3428 13.2654 12.9021 12.9282C13.059 12.8337 13.2064 12.7241 13.3421 12.6011C13.8261 12.1625 14.0847 11.5178 14.602 10.2282Z" stroke="#EE5A24" stroke-width="2"/>
</svg>
